<svg width="40" height="40" viewBox="0 0 40 40" fill="none" xmlns="http://www.w3.org/2000/svg">
<path d="M32.7274 16.3636H7.27284C5.26453 16.3636 3.63647 17.9917 3.63647 20V34.5455C3.63647 36.5538 5.26453 38.1818 7.27284 38.1818H32.7274C34.7357 38.1818 36.3637 36.5538 36.3637 34.5455V20C36.3637 17.9917 34.7357 16.3636 32.7274 16.3636Z" stroke="#969696" stroke-width="3" stroke-linecap="round" stroke-linejoin="round"/>
<path d="M9.09106 9.0909C9.09106 7.64426 9.66574 6.25688 10.6887 5.23395C11.7116 4.21103 13.099 3.63635 14.5456 3.63635H25.4547C26.9013 3.63635 28.2887 4.21103 29.3116 5.23395C30.3346 6.25688 30.9092 7.64426 30.9092 9.0909V16.3636H9.09106V9.0909Z" stroke="#969696" stroke-width="3" stroke-linecap="round" stroke-linejoin="round"/>
</svg>
