<svg width="148" height="45" viewBox="0 0 148 45" fill="none" xmlns="http://www.w3.org/2000/svg">
<path d="M29 15.5769L29 29.4231L-1.96701e-06 45L0 -1.26763e-06L29 15.5769Z" fill="#7B61FF"/>
<path d="M3.024 34V8.8H22.212V13.84H8.568V19.204H20.592V24.244H8.568V34H3.024ZM66.861 31.516C64.917 33.436 62.217 34.396 58.761 34.396C55.305 34.396 52.617 33.448 50.697 31.552C48.801 29.656 47.853 26.872 47.853 23.2V8.8H53.397V23.056C53.397 25.096 53.865 26.644 54.801 27.7C55.761 28.756 57.105 29.284 58.833 29.284C60.561 29.284 61.893 28.78 62.829 27.772C63.789 26.74 64.269 25.228 64.269 23.236V8.8H69.813V23.02C69.813 26.764 68.829 29.596 66.861 31.516ZM102.081 34.36C98.6968 34.36 95.9488 33.1 93.8368 30.58L97.3288 26.692C98.8648 28.372 100.401 29.212 101.937 29.212C104.193 29.212 105.321 27.82 105.321 25.036V8.8H111.009V25.288C111.009 28.192 110.217 30.436 108.633 32.02C107.073 33.58 104.889 34.36 102.081 34.36ZM138.529 34V8.8H144.073V34H138.529Z" fill="white"/>
</svg>
