<svg width="25" height="25" viewBox="0 0 25 25" fill="none" xmlns="http://www.w3.org/2000/svg">
<g clip-path="url(#clip0_4081_8012)">
<path d="M3.47244 -0.138916C2.51471 -0.138916 1.59621 0.241539 0.918998 0.918754C0.241783 1.59597 -0.138672 2.51447 -0.138672 3.47219V21.5277C-0.138672 22.4855 0.241783 23.404 0.918998 24.0812C1.59621 24.7584 2.51471 25.1389 3.47244 25.1389H21.528C22.4857 25.1389 23.4042 24.7584 24.0814 24.0812C24.7586 23.404 25.1391 22.4855 25.1391 21.5277V3.47219C25.1391 2.51447 24.7586 1.59597 24.0814 0.918754C23.4042 0.241539 22.4857 -0.138916 21.528 -0.138916H3.47244ZM13.403 6.18053V11.5972H18.8197C19.0591 11.5972 19.2887 11.6923 19.458 11.8616C19.6273 12.0309 19.7224 12.2605 19.7224 12.5C19.7224 12.7394 19.6273 12.969 19.458 13.1383C19.2887 13.3076 19.0591 13.4027 18.8197 13.4027H13.403V18.8194C13.403 19.0588 13.3079 19.2885 13.1386 19.4578C12.9693 19.6271 12.7396 19.7222 12.5002 19.7222C12.2608 19.7222 12.0312 19.6271 11.8619 19.4578C11.6926 19.2885 11.5974 19.0588 11.5974 18.8194V13.4027H6.18077C5.94134 13.4027 5.71172 13.3076 5.54241 13.1383C5.37311 12.969 5.27799 12.7394 5.27799 12.5C5.27799 12.2605 5.37311 12.0309 5.54241 11.8616C5.71172 11.6923 5.94134 11.5972 6.18077 11.5972H11.5974V6.18053C11.5974 5.9411 11.6926 5.71147 11.8619 5.54217C12.0312 5.37286 12.2608 5.27775 12.5002 5.27775C12.7396 5.27775 12.9693 5.37286 13.1386 5.54217C13.3079 5.71147 13.403 5.9411 13.403 6.18053Z" fill="white"/>
</g>
<defs>
<clipPath id="clip0_4081_8012">
<rect width="25" height="25" fill="white"/>
</clipPath>
</defs>
</svg>
