<svg width="10" height="10" viewBox="0 0 10 10" fill="none" xmlns="http://www.w3.org/2000/svg">
<path d="M0.320753 3.0096C0.458641 2.87175 0.645632 2.79431 0.840605 2.79431C1.03558 2.79431 1.22257 2.87175 1.36046 3.0096L5.00016 6.6493L8.63986 3.0096C8.77854 2.87566 8.96428 2.80154 9.15707 2.80322C9.34986 2.80489 9.53428 2.88222 9.67061 3.01855C9.80694 3.15488 9.88427 3.3393 9.88595 3.53209C9.88762 3.72489 9.81351 3.91062 9.67957 4.0493L5.52001 8.20886C5.38213 8.34671 5.19513 8.42415 5.00016 8.42415C4.80519 8.42415 4.6182 8.34671 4.48031 8.20886L0.320753 4.0493C0.182906 3.91141 0.105469 3.72442 0.105469 3.52945C0.105469 3.33448 0.182906 3.14748 0.320753 3.0096V3.0096Z" fill="white"/>
</svg>
