<svg width="10" height="10" viewBox="0 0 10 10" fill="none" xmlns="http://www.w3.org/2000/svg">
<g clip-path="url(#clip0_3997_531)">
<path d="M9.57234 0.381954C9.48055 0.32238 9.37792 0.281474 9.27032 0.261573C9.16271 0.241672 9.05224 0.243166 8.94522 0.265969C8.83819 0.288772 8.7367 0.332438 8.64656 0.394472C8.55641 0.456507 8.47937 0.535693 8.41984 0.627509L3.75039 7.82501L1.47317 5.71945C1.39283 5.64517 1.29864 5.58743 1.19598 5.54954C1.09333 5.51166 0.984211 5.49436 0.87487 5.49864C0.654046 5.50729 0.445702 5.6033 0.29567 5.76557C0.145639 5.92783 0.0662101 6.14304 0.0748576 6.36387C0.0835051 6.58469 0.17952 6.79303 0.341781 6.94307L3.33178 9.70751C3.33178 9.70751 3.41761 9.7814 3.45734 9.80723C3.54914 9.86685 3.65179 9.90779 3.75942 9.92772C3.86705 9.94764 3.97756 9.94616 4.08461 9.92335C4.19167 9.90055 4.29319 9.85687 4.38336 9.79481C4.47352 9.73275 4.55058 9.65353 4.61012 9.56168L9.81789 1.53445C9.87747 1.44266 9.91837 1.34003 9.93827 1.23243C9.95817 1.12483 9.95668 1.01436 9.93388 0.907332C9.91107 0.800306 9.86741 0.698821 9.80537 0.608675C9.74334 0.518529 9.66415 0.441488 9.57234 0.381954V0.381954Z" fill="white"/>
</g>
<defs>
<clipPath id="clip0_3997_531">
<rect width="10" height="10" fill="white"/>
</clipPath>
</defs>
</svg>
