<svg width="18" height="18" viewBox="0 0 18 18" fill="none" xmlns="http://www.w3.org/2000/svg">
<g clip-path="url(#clip0_3913_3446)">
<path d="M7.5 0C3.36675 0 0 3.36675 0 7.5C0 11.6332 3.36675 15 7.5 15C9.29738 15 10.948 14.3617 12.2417 13.3022L16.7197 17.7803C16.7888 17.8522 16.8716 17.9097 16.9632 17.9493C17.0548 17.9889 17.1534 18.0098 17.2532 18.0108C17.3529 18.0118 17.4519 17.9929 17.5443 17.9552C17.6367 17.9175 17.7206 17.8617 17.7912 17.7912C17.8617 17.7206 17.9175 17.6367 17.9552 17.5443C17.9929 17.4519 18.0118 17.3529 18.0108 17.2532C18.0098 17.1534 17.9889 17.0548 17.9493 16.9632C17.9097 16.8716 17.8522 16.7888 17.7803 16.7197L13.3022 12.2417C14.3617 10.948 15 9.29738 15 7.5C15 3.36675 11.6332 0 7.5 0ZM7.5 1.5C10.8226 1.5 13.5 4.17741 13.5 7.5C13.5 10.8226 10.8226 13.5 7.5 13.5C4.17741 13.5 1.5 10.8226 1.5 7.5C1.5 4.17741 4.17741 1.5 7.5 1.5Z" fill="white"/>
</g>
<defs>
<clipPath id="clip0_3913_3446">
<rect width="18" height="18" fill="white"/>
</clipPath>
</defs>
</svg>
