<svg width="22" height="22" viewBox="0 0 22 22" fill="none" xmlns="http://www.w3.org/2000/svg">
<g clip-path="url(#clip0_3821_777)">
<path d="M20.0984 18.1567C19.6031 16.9834 18.8842 15.9176 17.982 15.0188C17.0824 14.1174 16.0168 13.3986 14.844 12.9023C14.8335 12.8971 14.823 12.8945 14.8125 12.8892C16.4485 11.7076 17.5119 9.78281 17.5119 7.61121C17.5119 4.01377 14.5972 1.09906 10.9998 1.09906C7.40234 1.09906 4.48763 4.01377 4.48763 7.61121C4.48763 9.78281 5.5511 11.7076 7.18702 12.8918C7.17651 12.8971 7.16601 12.8997 7.15551 12.905C5.97912 13.4013 4.92352 14.1129 4.0176 15.0214C3.11616 15.9209 2.39745 16.9865 1.90115 18.1593C1.41358 19.3075 1.15063 20.5385 1.12652 21.7856C1.12581 21.8137 1.13073 21.8416 1.14097 21.8677C1.15122 21.8937 1.16658 21.9175 1.18616 21.9376C1.20573 21.9577 1.22913 21.9736 1.25496 21.9845C1.2808 21.9954 1.30855 22.001 1.33658 22.001H2.91211C3.02764 22.001 3.11955 21.9091 3.12217 21.7962C3.17469 19.769 3.98871 17.8705 5.42769 16.4315C6.91655 14.9426 8.89383 14.1234 10.9998 14.1234C13.1057 14.1234 15.083 14.9426 16.5719 16.4315C18.0108 17.8705 18.8249 19.769 18.8774 21.7962C18.88 21.9117 18.9719 22.001 19.0875 22.001H20.663C20.691 22.001 20.7188 21.9954 20.7446 21.9845C20.7704 21.9736 20.7938 21.9577 20.8134 21.9376C20.833 21.9175 20.8483 21.8937 20.8586 21.8677C20.8688 21.8416 20.8737 21.8137 20.873 21.7856C20.8468 20.5305 20.5868 19.3095 20.0984 18.1567ZM10.9998 12.1277C9.79451 12.1277 8.66013 11.6577 7.80672 10.8043C6.95332 9.95086 6.48329 8.81649 6.48329 7.61121C6.48329 6.40594 6.95332 5.27156 7.80672 4.41816C8.66013 3.56475 9.79451 3.09472 10.9998 3.09472C12.2051 3.09472 13.3394 3.56475 14.1928 4.41816C15.0462 5.27156 15.5163 6.40594 15.5163 7.61121C15.5163 8.81649 15.0462 9.95086 14.1928 10.8043C13.3394 11.6577 12.2051 12.1277 10.9998 12.1277Z" fill="#969696"/>
</g>
<defs>
<clipPath id="clip0_3821_777">
<rect width="22" height="22" fill="white"/>
</clipPath>
</defs>
</svg>
