<svg width="22" height="22" viewBox="0 0 22 22" fill="none" xmlns="http://www.w3.org/2000/svg">
<path d="M20.0984 17.6067C19.6031 16.4334 18.8843 15.3676 17.982 14.4688C17.0824 13.5674 16.0169 12.8486 14.8441 12.3523C14.8336 12.3471 14.8231 12.3445 14.8126 12.3392C16.4485 11.1576 17.5119 9.23282 17.5119 7.06122C17.5119 3.46379 14.5972 0.549072 10.9998 0.549072C7.40235 0.549072 4.48764 3.46379 4.48764 7.06122C4.48764 9.23282 5.55112 11.1576 7.18703 12.3418C7.17653 12.3471 7.16603 12.3497 7.15552 12.355C5.97913 12.8513 4.92354 13.5629 4.01761 14.4714C3.11618 15.371 2.39746 16.4365 1.90116 17.6093C1.4136 18.7575 1.15064 19.9885 1.12653 21.2357C1.12583 21.2637 1.13075 21.2916 1.14099 21.3177C1.15123 21.3438 1.16659 21.3675 1.18617 21.3876C1.20575 21.4077 1.22914 21.4236 1.25498 21.4345C1.28081 21.4454 1.30857 21.451 1.3366 21.451H2.91212C3.02766 21.451 3.11956 21.3591 3.12219 21.2462C3.17471 19.219 3.98873 17.3205 5.4277 15.8815C6.91657 14.3926 8.89385 13.5734 10.9998 13.5734C13.1057 13.5734 15.083 14.3926 16.5719 15.8815C18.0109 17.3205 18.8249 19.219 18.8774 21.2462C18.88 21.3617 18.9719 21.451 19.0875 21.451H20.663C20.691 21.451 20.7188 21.4454 20.7446 21.4345C20.7704 21.4236 20.7938 21.4077 20.8134 21.3876C20.833 21.3675 20.8484 21.3438 20.8586 21.3177C20.8688 21.2916 20.8738 21.2637 20.8731 21.2357C20.8468 19.9805 20.5868 18.7595 20.0984 17.6067ZM10.9998 11.5777C9.79452 11.5777 8.66015 11.1077 7.80674 10.2543C6.95333 9.40087 6.4833 8.2665 6.4833 7.06122C6.4833 5.85595 6.95333 4.72158 7.80674 3.86817C8.66015 3.01476 9.79452 2.54473 10.9998 2.54473C12.2051 2.54473 13.3394 3.01476 14.1928 3.86817C15.0463 4.72158 15.5163 5.85595 15.5163 7.06122C15.5163 8.2665 15.0463 9.40087 14.1928 10.2543C13.3394 11.1077 12.2051 11.5777 10.9998 11.5777Z" fill="white"/>
</svg>
