<svg width="22" height="22" viewBox="0 0 22 22" fill="none" xmlns="http://www.w3.org/2000/svg">
<g clip-path="url(#clip0_3849_6671)">
<path d="M3.14286 0C2.30932 0 1.50992 0.331121 0.920521 0.920521C0.331121 1.50992 0 2.30932 0 3.14286V18.8571C0 19.6907 0.331121 20.4901 0.920521 21.0795C1.50992 21.6689 2.30932 22 3.14286 22H18.8571C19.6907 22 20.4901 21.6689 21.0795 21.0795C21.6689 20.4901 22 19.6907 22 18.8571V3.14286C22 2.30932 21.6689 1.50992 21.0795 0.920521C20.4901 0.331121 19.6907 0 18.8571 0H3.14286ZM11.7857 5.5V10.2143H16.5C16.7084 10.2143 16.9082 10.2971 17.0556 10.4444C17.2029 10.5918 17.2857 10.7916 17.2857 11C17.2857 11.2084 17.2029 11.4082 17.0556 11.5556C16.9082 11.7029 16.7084 11.7857 16.5 11.7857H11.7857V16.5C11.7857 16.7084 11.7029 16.9082 11.5556 17.0556C11.4082 17.2029 11.2084 17.2857 11 17.2857C10.7916 17.2857 10.5918 17.2029 10.4444 17.0556C10.2971 16.9082 10.2143 16.7084 10.2143 16.5V11.7857H5.5C5.29162 11.7857 5.09177 11.7029 4.94442 11.5556C4.79707 11.4082 4.71429 11.2084 4.71429 11C4.71429 10.7916 4.79707 10.5918 4.94442 10.4444C5.09177 10.2971 5.29162 10.2143 5.5 10.2143H10.2143V5.5C10.2143 5.29162 10.2971 5.09177 10.4444 4.94442C10.5918 4.79707 10.7916 4.71429 11 4.71429C11.2084 4.71429 11.4082 4.79707 11.5556 4.94442C11.7029 5.09177 11.7857 5.29162 11.7857 5.5Z" fill="#969696"/>
</g>
<defs>
<clipPath id="clip0_3849_6671">
<rect width="22" height="22" fill="white"/>
</clipPath>
</defs>
</svg>
