<svg width="22" height="22" viewBox="0 0 22 22" fill="none" xmlns="http://www.w3.org/2000/svg">
<g clip-path="url(#clip0_3855_10539)">
<path d="M3.14286 -6.10352e-05C2.30932 -6.10352e-05 1.50992 0.33106 0.920521 0.92046C0.331121 1.50986 0 2.30926 0 3.1428V18.8571C0 19.6906 0.331121 20.49 0.920521 21.0794C1.50992 21.6688 2.30932 21.9999 3.14286 21.9999H18.8571C19.6907 21.9999 20.4901 21.6688 21.0795 21.0794C21.6689 20.49 22 19.6906 22 18.8571V3.1428C22 2.30926 21.6689 1.50986 21.0795 0.92046C20.4901 0.33106 19.6907 -6.10352e-05 18.8571 -6.10352e-05H3.14286ZM11.7857 5.49994V10.2142H16.5C16.7084 10.2142 16.9082 10.297 17.0556 10.4444C17.2029 10.5917 17.2857 10.7916 17.2857 10.9999C17.2857 11.2083 17.2029 11.4082 17.0556 11.5555C16.9082 11.7029 16.7084 11.7857 16.5 11.7857H11.7857V16.4999C11.7857 16.7083 11.7029 16.9082 11.5556 17.0555C11.4082 17.2029 11.2084 17.2857 11 17.2857C10.7916 17.2857 10.5918 17.2029 10.4444 17.0555C10.2971 16.9082 10.2143 16.7083 10.2143 16.4999V11.7857H5.5C5.29162 11.7857 5.09177 11.7029 4.94442 11.5555C4.79707 11.4082 4.71429 11.2083 4.71429 10.9999C4.71429 10.7916 4.79707 10.5917 4.94442 10.4444C5.09177 10.297 5.29162 10.2142 5.5 10.2142H10.2143V5.49994C10.2143 5.29155 10.2971 5.09171 10.4444 4.94436C10.5918 4.79701 10.7916 4.71422 11 4.71422C11.2084 4.71422 11.4082 4.79701 11.5556 4.94436C11.7029 5.09171 11.7857 5.29155 11.7857 5.49994Z" fill="white"/>
</g>
<defs>
<clipPath id="clip0_3855_10539">
<rect width="22" height="22" fill="white"/>
</clipPath>
</defs>
</svg>
