<svg width="22" height="22" viewBox="0 0 22 22" fill="none" xmlns="http://www.w3.org/2000/svg">
<path d="M19.8 22H4.94998C3.92889 22 2.94963 21.5944 2.22761 20.8724C1.5056 20.1503 1.09998 19.1711 1.09998 18.15V3.3C1.09998 2.42479 1.44765 1.58542 2.06652 0.966548C2.68539 0.347678 3.52476 0 4.39998 0H19.8C20.0917 0 20.3715 0.115892 20.5778 0.322182C20.7841 0.528473 20.9 0.808262 20.9 1.1V20.9C20.9 21.1917 20.7841 21.4715 20.5778 21.6778C20.3715 21.8841 20.0917 22 19.8 22ZM18.7 19.8V16.5H4.94998C4.51237 16.5 4.09268 16.6738 3.78325 16.9833C3.47381 17.2927 3.29998 17.7124 3.29998 18.15C3.29998 18.5876 3.47381 19.0073 3.78325 19.3167C4.09268 19.6262 4.51237 19.8 4.94998 19.8H18.7Z" fill="#969696"/>
</svg>
