<svg width="22" height="22" viewBox="0 0 22 22" fill="none" xmlns="http://www.w3.org/2000/svg">
<g clip-path="url(#clip0_3855_10515)">
<path d="M21.6136 8.64765L18.8609 6.40416V2.8162C18.8609 2.41216 18.5322 2.0834 18.1281 2.0834H16.3961C15.992 2.0834 15.6633 2.41216 15.6633 2.8162V3.79794L11.9851 0.800209C11.719 0.583435 11.3683 0.463989 10.9977 0.463989C10.6285 0.463989 10.2795 0.582702 10.0149 0.798344L0.386388 8.64759C-0.0510916 9.00406 -0.0248442 9.31456 0.0297158 9.46792C0.0841426 9.62094 0.259414 9.87768 0.821402 9.87768H2.13984V20.1999C2.13984 20.9366 2.73753 21.5358 3.47219 21.5358H7.63581C8.36427 21.5358 8.93486 20.949 8.93486 20.1999V15.9669C8.93486 15.6041 9.26828 15.2738 9.63434 15.2738H12.4323C12.7812 15.2738 13.0652 15.5848 13.0652 15.9669V20.1999C13.0652 20.924 13.6906 21.5358 14.4308 21.5358H18.5278C19.2625 21.5358 19.8602 20.9365 19.8602 20.1999V9.87768H21.1786C21.7406 9.87768 21.9158 9.62094 21.9703 9.46792C22.0249 9.31456 22.0511 9.00406 21.6136 8.64765Z" fill="white"/>
</g>
<defs>
<clipPath id="clip0_3855_10515">
<rect width="22" height="22" fill="white"/>
</clipPath>
</defs>
</svg>
