<svg width="22" height="22" viewBox="0 0 22 22" fill="none" xmlns="http://www.w3.org/2000/svg">
<g clip-path="url(#clip0_3849_6687)">
<path d="M21.6136 8.64777L18.8609 6.40429V2.81632C18.8609 2.41228 18.5322 2.08352 18.1281 2.08352H16.3961C15.992 2.08352 15.6633 2.41228 15.6633 2.81632V3.79807L11.9851 0.800331C11.719 0.583557 11.3683 0.464111 10.9977 0.464111C10.6285 0.464111 10.2795 0.582824 10.0149 0.798466L0.386388 8.64771C-0.0510916 9.00418 -0.0248442 9.31468 0.0297158 9.46804C0.0841426 9.62106 0.259414 9.8778 0.821402 9.8778H2.13984V20.2C2.13984 20.9367 2.73753 21.5359 3.47219 21.5359H7.63581C8.36427 21.5359 8.93486 20.9491 8.93486 20.2V15.9671C8.93486 15.6043 9.26828 15.2739 9.63434 15.2739H12.4323C12.7812 15.2739 13.0652 15.5849 13.0652 15.9671V20.2C13.0652 20.9242 13.6906 21.5359 14.4308 21.5359H18.5278C19.2625 21.5359 19.8602 20.9366 19.8602 20.2V9.8778H21.1786C21.7406 9.8778 21.9158 9.62106 21.9703 9.46804C22.0249 9.31468 22.0511 9.00418 21.6136 8.64777Z" fill="#969696"/>
</g>
<defs>
<clipPath id="clip0_3849_6687">
<rect width="22" height="22" fill="white"/>
</clipPath>
</defs>
</svg>
