<svg width="22" height="22" viewBox="0 0 22 22" fill="none" xmlns="http://www.w3.org/2000/svg">
<g clip-path="url(#clip0_3849_6677)">
<path d="M2.0625 0C0.92125 0 0 0.92125 0 2.05975V19.9086C0 21.0471 0.922625 21.9684 2.0625 21.9684H3.4375C4.57463 21.9684 5.49863 21.0471 5.49863 19.9086V2.05975C5.49863 0.92125 4.57463 0 3.43613 0H2.06113H2.0625ZM8.93475 0C7.79625 0 6.87225 0.92125 6.87225 2.05975V19.9086C6.87225 21.0471 7.79625 21.9684 8.93475 21.9684H10.3098C11.4483 21.9684 12.3709 21.0471 12.3709 19.9086V2.05975C12.3709 0.922625 11.4482 0 10.3084 0H8.93337H8.93475ZM18.8623 5.71588C18.7994 5.44368 18.682 5.18709 18.517 4.96166C18.352 4.73623 18.143 4.54666 17.9025 4.40445C17.6621 4.26225 17.3953 4.17036 17.1183 4.13438C16.8412 4.0984 16.5598 4.11906 16.291 4.19513L15.2666 4.48388C14.7662 4.62537 14.3378 4.95094 14.0674 5.39523C13.7971 5.83951 13.7048 6.36962 13.8091 6.87912L16.5632 20.3528C16.6195 20.6258 16.7306 20.8847 16.8897 21.1137C17.0488 21.3426 17.2527 21.5369 17.4891 21.6849C17.7254 21.8328 17.9893 21.9313 18.2648 21.9743C18.5403 22.0174 18.8217 22.0041 19.0919 21.9354L20.4463 21.5916C21.5325 21.3166 22.198 20.2249 21.9477 19.1345L18.8623 5.7145V5.71588Z" fill="#969696"/>
</g>
<defs>
<clipPath id="clip0_3849_6677">
<rect width="22" height="22" fill="white"/>
</clipPath>
</defs>
</svg>
